<?xml version="1.0" encoding="UTF-8"?>
<svg xmlns="http://www.w3.org/2000/svg" xmlns:xlink="http://www.w3.org/1999/xlink" width="417pt" height="274pt" viewBox="0 0 417 274" version="1.1">
<g id="surface1">
<path style=" stroke:none;fill-rule:nonzero;fill:rgb(21.208191%,35.014343%,69.342041%);fill-opacity:1;" d="M 341.035156 104.40625 C 341.035156 112.449219 352.507812 112.449219 352.507812 104.40625 C 352.507812 96.363281 341.035156 96.363281 341.035156 104.40625 "/>
<path style=" stroke:none;fill-rule:nonzero;fill:rgb(21.208191%,35.014343%,69.342041%);fill-opacity:1;" d="M 280.628906 107.148438 C 280.628906 115.191406 292.097656 115.191406 292.097656 107.148438 C 292.097656 99.101562 280.628906 99.101562 280.628906 107.148438 "/>
<path style=" stroke:none;fill-rule:nonzero;fill:rgb(21.208191%,35.014343%,69.342041%);fill-opacity:1;" d="M 334.65625 143.363281 C 329.222656 150.195312 320.664062 153.578125 310.90625 148.441406 C 301.734375 143.609375 294.601562 133.691406 300.886719 123.632812 C 306.617188 114.460938 320.574219 110.246094 330.789062 115.136719 C 344.328125 121.617188 342.035156 134.085938 334.65625 143.363281 M 216 203.269531 C 211.667969 196.59375 176.640625 137.460938 200.5 132.269531 C 216.722656 128.738281 216.570312 196.769531 216 203.269531 M 382.597656 140.925781 C 378.589844 133.320312 374.613281 126.082031 371.78125 117.832031 C 368.980469 109.664062 371.984375 95.390625 369.125 97.769531 C 364.691406 101.453125 354.464844 128.171875 343.601562 116.402344 C 339.171875 111.601562 333.378906 108.507812 327.066406 107.085938 C 322.878906 106.140625 318.925781 106.339844 314.714844 106.9375 C 312.222656 107.289062 309.796875 107.984375 307.539062 109.101562 C 303.640625 111.03125 300.339844 114.058594 297.425781 117.242188 C 291.414062 123.800781 287.734375 131.828125 284.382812 139.96875 C 282.546875 144.421875 280.90625 148.949219 279.152344 153.433594 C 272.199219 171.253906 267.570312 192.378906 257.058594 208.644531 C 242.332031 231.4375 220.820312 207.449219 220.820312 207.449219 C 220.820312 207.449219 231.160156 120.433594 199.597656 123.292969 C 182.851562 124.8125 184.105469 144.808594 185.964844 154.554688 C 190.714844 179.480469 215.386719 208.769531 215.386719 208.769531 C 215.386719 208.769531 215 226.019531 193.769531 237.570312 C 159.179688 256.390625 114.453125 249.613281 81.210938 223.265625 C 66.433594 211.550781 54.855469 196.203125 46.617188 179.308594 C 42 169.84375 37.730469 159.742188 38.84375 148.976562 C 39.824219 139.445312 45.136719 129.804688 49.714844 121.527344 C 60.464844 102.105469 78.40625 90.554688 97.636719 80.535156 C 117.683594 70.09375 139.039062 65.445312 161.515625 64.1875 C 183.289062 62.96875 205.445312 65.558594 227.105469 62.933594 C 237.761719 61.640625 247.808594 58.304688 256.53125 51.949219 C 264.054688 46.46875 270.652344 39.835938 278.199219 34.390625 C 295.179688 22.152344 316.652344 21.023438 335.136719 30.828125 C 353.308594 40.46875 363.445312 58.550781 370.40625 77.039062 C 371.261719 68.355469 370.980469 59.621094 371.566406 50.941406 C 372.414062 38.378906 374.089844 37.945312 367.425781 40.324219 C 360.042969 42.957031 354.578125 41.71875 348.953125 36.75 C 348.570312 36.410156 348.179688 36.054688 347.78125 35.679688 C 342.367188 30.5625 336.589844 26.042969 329.65625 23.15625 C 318.597656 18.550781 306.6875 18.316406 295.421875 21.234375 C 293.394531 21.757812 291.390625 22.382812 289.398438 23.109375 C 286.558594 24.011719 283.90625 25.222656 281.351562 26.652344 C 273.554688 30.671875 266.246094 35.949219 257.226562 36.511719 C 248.695312 37.042969 240.339844 34.574219 232.003906 33.1875 C 234.6875 38.324219 237.792969 45.320312 235.09375 51.058594 C 231.640625 58.40625 205.898438 59.027344 201.800781 59.019531 C 190.113281 58.996094 178.425781 58.785156 166.738281 59.023438 C 145.121094 59.472656 126.078125 64.144531 105.875 71.679688 C 104.519531 71.535156 97.613281 74.824219 94.652344 76.234375 C 87.050781 79.859375 79.839844 83.929688 72.914062 88.738281 C 58.113281 99.003906 44.945312 111.585938 33.773438 125.703125 C 24.546875 137.363281 9.621094 153.875 22.566406 168.578125 C 29.105469 176.003906 33.636719 182.84375 39.375 189.761719 C 44.554688 196.003906 50.167969 201.890625 56.050781 207.480469 C 80.207031 230.417969 112.828125 251.019531 146.75 251.019531 C 214.886719 251.019531 219.46875 211.921875 219.46875 211.921875 C 219.46875 211.921875 225.75 218.769531 236.664062 222.144531 C 242.707031 224.011719 249.332031 223.378906 254.769531 220.488281 C 254.914062 220.40625 255.0625 220.335938 255.210938 220.269531 C 260.792969 217.664062 265.996094 222.066406 270.550781 224.652344 C 268.570312 217.320312 266.058594 217.027344 262.628906 214.367188 C 267.652344 211.898438 270.039062 214.4375 272.640625 217.035156 C 272.972656 210.53125 265.753906 207.621094 267.074219 200.664062 C 267.253906 199.71875 267.46875 198.777344 267.699219 197.839844 C 268.96875 192.652344 270.910156 187.589844 272.65625 182.570312 C 274.632812 176.886719 276.480469 171.15625 278.511719 165.488281 C 280.292969 160.519531 282.621094 153.320312 286.675781 149.265625 C 294.386719 141.550781 304.203125 152.449219 309.257812 154.832031 C 318.1875 159.039062 325.976562 159.945312 332.316406 155.289062 C 338.390625 150.828125 343.058594 144.835938 346.414062 137.753906 C 350.277344 129.589844 356.523438 122.425781 362.71875 115.859375 C 367.195312 127.871094 373.75 137.851562 379.738281 149.042969 C 384.886719 158.660156 391.273438 176.113281 382.03125 185.265625 C 376.59375 190.648438 354.34375 197.246094 352.386719 185.09375 C 352.097656 183.304688 350.835938 182.886719 349.207031 183.191406 C 345.777344 183.84375 340.851562 187.867188 339.652344 188.90625 C 334.386719 193.464844 336.183594 200.53125 336.007812 200.707031 C 339.960938 196.753906 344.382812 194.375 349.347656 191.960938 C 347.140625 197.988281 346.6875 202.09375 351.703125 206.753906 C 351.402344 206.480469 355.761719 200.734375 356.152344 200.203125 C 358.0625 197.59375 360.550781 196.628906 363.734375 196.539062 C 365.042969 196.503906 366.378906 196.441406 367.71875 196.347656 C 374.902344 195.84375 382.3125 194.226562 387.203125 188.511719 C 400.042969 173.5 389.0625 153.183594 382.597656 140.925781 C 378.589844 133.320312 389.0625 153.183594 382.597656 140.925781 "/>
</g>
</svg>
